<svg xmlns="http://www.w3.org/2000/svg" width="696" height="696" viewBox="0 0 6960 6960"><path d="M1383 6307c-146-39-227-119-257-256-19-85-226-1160-226-1173 0-4-39-8-86-8-160 0-221-33-244-132-7-29-18-62-24-73-24-38-36-114-36-222v-108l-40-39c-22-21-40-46-40-56 0-14-12-18-69-22-88-7-138-32-165-84-18-33-22-61-25-179l-3-139-35-41c-48-56-90-147-108-232-14-65-14-81 0-145 18-89 53-161 105-221l40-45v-162c0-88 5-181 11-206 14-54 58-101 103-109l33-7 5-72c5-81 22-115 73-146 22-13 32-26 29-38-3-9-65-333-138-719L152 972l19-76c36-142 114-217 261-254 85-21 103-22 698-22s613 1 698 22c148 37 225 112 261 255 11 43 56 305 101 583 44 278 84 513 88 523 5 12 59-199 150-583 129-544 146-605 175-646 48-69 109-107 209-132 85-21 103-22 698-22s613 1 698 22c101 25 161 63 211 133 31 43 45 93 176 646 79 329 145 604 147 609 2 6 41-223 87-507 46-285 94-559 105-610 36-157 107-230 264-270 85-22 100-23 695-23 592 0 610 1 695 22 148 37 224 111 261 252l19 78-149 787c-132 692-148 791-139 828 5 23 10 102 10 176v134l65 5c140 12 178 60 184 237 3 104 6 117 32 160 34 55 79 207 79 265 0 67-38 186-78 246-29 44-37 65-38 105 0 28-4 183-8 345-8 332-14 360-80 395-32 17-34 21-38 86-10 137-60 181-214 187l-92 4-6 45c-14 107-69 145-218 151l-97 4-10 52c-6 28-45 229-86 446s-81 419-89 449c-32 118-119 196-258 230-84 20-108 21-718 21-615 0-633-1-718-22-101-25-161-63-211-133-30-42-43-86-127-437-52-216-96-394-99-396-11-11-56 44-67 81-22 72-89 117-175 117-73 0-137-49-155-118-8-32-15-41-27-38-9 3-35 10-58 16-24 6-43 13-43 16s-38 165-85 359c-76 321-87 358-119 402-50 70-107 106-208 131-85 22-101 22-725 21-620-1-640-2-720-22zm1400-188c21-6 55-27 75-47 40-41 24 18 203-740l32-133 72 6c61 6 80 4 119-14 60-26 92-51 128-101 28-37 33-40 79-40h49v209l44-44c32-32 60-49 100-60l56-16v-160l72 3 72 3 12 50c7 28 62 261 124 520 71 297 119 480 131 497 11 15 36 37 57 50l37 23 653 3c441 2 666-1 693-8 60-16 106-63 124-124 8-28 55-271 105-541 51-269 94-496 96-502 2-10 42-13 154-13h150v-200h300v-240h121l-6-282c-3-156-6-315-7-355-1-70-1-72 39-117 103-116 108-235 18-362l-35-49v-245h-250v-225c0-193-2-225-15-225-23 0-19-70 15-243 148-757 269-1421 263-1449-8-42-73-104-122-118-27-7-241-10-668-8l-628 3-41 24c-69 39-78 66-133 402-73 442-240 1471-253 1562l-11 77h-62l-234-983c-154-647-240-991-252-1009-11-15-36-37-57-50l-37-23H2855l-37 23c-20 12-45 36-55 53-12 18-108 405-249 999l-229 970h-32c-26 0-34-5-38-22-5-21-69-416-229-1413-37-226-72-435-78-465-14-65-66-123-125-139-52-15-1254-15-1306 0-48 13-112 76-120 117-4 21 43 286 138 787 80 415 145 778 145 805v50H500v240H360v409l-46 43c-59 56-97 129-98 189 0 63 44 149 100 196l44 37v326h240v130h100v195c0 188 1 195 20 195 18 0 20 7 20 65v65h319l10 53c6 28 58 302 116 607s110 580 117 610c20 99 59 147 136 170 42 13 1300 12 1345-1z"/><path d="M1425 5998c-2-7-125-650-274-1428-148-778-362-1897-475-2486C562 1495 470 996 470 976v-36h1318l6 28c3 15 33 194 66 397 281 1737 360 2218 362 2220s131-538 287-1198c157-661 298-1257 314-1325l29-122h658c619 0 659 1 664 17 3 10 145 605 316 1322 171 718 312 1306 313 1307 1 2 92-547 201-1219s206-1267 215-1322l17-100 657-3 657-2v36c0 20-59 345-130 722-184 969-777 4098-799 4212l-18 95-681 3c-642 2-681 1-686-15-3-10-91-376-195-813-105-437-249-1040-321-1340s-147-616-167-702c-21-86-39-156-40-154-2 2-55 218-118 482-111 468-590 2477-600 2522l-5 22h-681c-535 0-681-3-684-12z"/><g fill="#FFF"><path d="M1408 6150c-77-23-116-71-136-170-7-30-59-305-117-610s-110-579-116-607l-10-53H710v-65c0-58-2-65-20-65-19 0-20-7-20-195v-195H570v-130H330l-1-87c0-49 0-122 1-163l1-75-45-37c-67-56-101-133-101-228 1-91 28-152 99-218l47-44-1-146c-1-81-1-173 0-204v-58h140v-240h70c66 0 70-1 70-22 0-13-67-369-148-793-132-687-147-775-138-815 13-55 69-114 123-129 52-15 1314-15 1366 0 59 16 111 74 125 139 11 53 36 205 222 1360 44 278 84 513 88 522 4 11 97-364 236-952 141-594 237-981 249-999 10-17 35-41 55-53l37-23h1370l37 23c21 13 46 35 57 50 12 18 98 362 252 1010l234 982 12-72c37-238 184-1142 239-1477 71-433 77-452 148-492l41-24 658-3c448-2 671 1 698 8 56 15 112 74 125 130 10 46-10 159-245 1390-28 146-51 271-51 278 0 6 7 12 15 12 13 0 15 32 15 225v225h250v123c0 117 1 125 26 158 106 139 104 307-6 431-42 49-61 115-38 139 10 11 12 77 10 317l-3 302h-119v240h-300v200h-150c-112 0-152 3-154 13-2 6-45 233-96 502-50 270-97 513-105 541-18 61-64 108-124 124-27 7-261 10-723 8l-683-3-37-23c-21-13-46-35-57-50-12-17-60-200-131-497-62-259-117-492-124-520-12-49-13-50-54-53l-42-3v160l-42 12c-88 23-156 89-178 171-6 22-17 38-25 38-13 0-15-26-15-155 0-145-1-155-19-155-10 0-31 17-46 38-16 20-38 45-49 55-61 52-161 81-233 68l-41-8-31 131c-178 755-163 697-203 738-20 20-54 41-75 47-45 13-1363 14-1405 1zm1357-192c3-13 90-381 194-818s269-1128 366-1535c96-407 179-748 183-759 5-12 25 54 60 200 28 121 110 464 182 764s216 903 321 1340c104 437 192 803 195 813 5 16 43 17 656 15l651-3 18-95c22-114 615-3243 799-4212 71-377 130-689 130-692s-282-5-627-4l-627 3-8 45c-4 25-105 644-223 1375-119 732-219 1338-223 1348s-133-513-331-1345c-178-750-328-1378-333-1396l-9-32H2882l-5 23c-3 12-148 623-322 1357-340 1435-336 1420-341 1405-3-8-254-1550-409-2510-19-121-38-232-41-248l-6-27h-629c-346 0-629 3-629 6 0 4 92 489 206 1078 113 589 327 1708 475 2486 149 778 272 1421 274 1428 3 9 143 12 654 12h651l5-22z"/></g></svg>